<?xml version="1.0" encoding="UTF-8"?> <svg xmlns="http://www.w3.org/2000/svg" xmlns:xlink="http://www.w3.org/1999/xlink" id="Laag_1" viewBox="0 0 288.52 87.75"><defs><style>.cls-1,.cls-2,.cls-3{fill:none;}.cls-4{fill:url(#Nieuwe_verloopstaal_1-20);}.cls-5{fill:url(#Nieuwe_verloopstaal_1-21);}.cls-6{fill:url(#Nieuwe_verloopstaal_1-24);}.cls-7{fill:url(#Nieuwe_verloopstaal_1-25);}.cls-8{fill:url(#Nieuwe_verloopstaal_1-10);}.cls-9{fill:url(#Nieuwe_verloopstaal_1-22);}.cls-10{fill:url(#Nieuwe_verloopstaal_1-23);}.cls-11{fill:url(#Nieuwe_verloopstaal_1-17);}.cls-12{fill:url(#Nieuwe_verloopstaal_1-18);}.cls-13{fill:url(#Nieuwe_verloopstaal_1-12);}.cls-14{fill:url(#Nieuwe_verloopstaal_1-11);}.cls-15{fill:url(#Nieuwe_verloopstaal_1-19);}.cls-16{fill:url(#Nieuwe_verloopstaal_1-16);}.cls-17{fill:url(#Nieuwe_verloopstaal_1-15);}.cls-18{fill:url(#Nieuwe_verloopstaal_1-13);}.cls-19{fill:url(#Nieuwe_verloopstaal_1-14);}.cls-2{clip-path:url(#clippath-1);}.cls-20,.cls-21{fill:#305f70;}.cls-22{fill:url(#Nieuwe_verloopstaal_1);}.cls-21{stroke:#305f70;stroke-miterlimit:10;}.cls-23{fill:url(#Nieuwe_verloopstaal_1-3);}.cls-24{fill:url(#Nieuwe_verloopstaal_1-2);}.cls-25{fill:url(#Nieuwe_verloopstaal_1-6);}.cls-26{fill:url(#Nieuwe_verloopstaal_1-8);}.cls-27{fill:url(#Nieuwe_verloopstaal_1-5);}.cls-28{fill:url(#Nieuwe_verloopstaal_1-4);}.cls-29{fill:url(#Nieuwe_verloopstaal_1-7);}.cls-30{fill:url(#Nieuwe_verloopstaal_1-9);}.cls-31{fill:url(#Naamloos_verloop_12);}.cls-32{fill:url(#Naamloos_verloop_11);}.cls-3{clip-path:url(#clippath);}</style><clipPath id="clippath"><path class="cls-1" d="m29.08.13c-.86-.09-1.75-.13-2.68-.13l-8.13,51.27c.88.28,1.74.52,2.59.7.85.18,1.7.34,2.55.48s1.71.25,2.57.33c.86.09,1.75.13,2.68.13L36.79,1.65c-.88-.29-1.74-.52-2.59-.7-.85-.18-1.67-.34-2.48-.47-.9-.14-1.78-.26-2.64-.35m26.13,4.14c-.93-.1-1.96-.14-3.08-.12l-17.89,23.19,10.85,28.11c1.11.37,2.12.65,3.04.85.92.19,1.75.35,2.51.47.8.13,1.73.22,2.76.29,1.03.07,2.1.14,3.21.22l-11.02-28.87L63.52,5.96c-1.08-.27-2.1-.53-3.08-.78-.98-.25-1.87-.44-2.68-.57-.76-.12-1.6-.23-2.54-.33"></path></clipPath><linearGradient id="Naamloos_verloop_11" x1="-152.82" y1="524.41" x2="-151.82" y2="524.41" gradientTransform="translate(-67980.58 -19733.07) rotate(-90) scale(129.77)" gradientUnits="userSpaceOnUse"><stop offset="0" stop-color="#84ae86"></stop><stop offset=".14" stop-color="#7dad8a"></stop><stop offset=".33" stop-color="#6aab97"></stop><stop offset=".56" stop-color="#4ca7ad"></stop><stop offset=".82" stop-color="#22a2ca"></stop><stop offset="1" stop-color="#009fe3"></stop></linearGradient><clipPath id="clippath-1"><path class="cls-1" d="m70.63,5.79v51.77c1.78.29,3.55.43,5.33.43,1.68,0,3.43-.14,5.26-.43V5.79c-1.82-.29-3.6-.43-5.33-.43s-3.48.14-5.26.43m49.39,0v32.98L100,5.79c-1.54-.29-3.02-.43-4.46-.43-1.34,0-2.76.14-4.25.43v51.77c1.49.29,3.02.43,4.61.43s3.14-.14,4.68-.43V24.65l20.16,32.9c1.58.29,3.05.43,4.39.43,1.25,0,2.64-.14,4.18-.43V5.79c-1.39-.29-2.83-.43-4.32-.43-1.58,0-3.24.14-4.97.43"></path></clipPath><linearGradient id="Naamloos_verloop_12" x1="-151.95" y1="524.35" x2="-150.95" y2="524.35" gradientTransform="translate(19732.39 68078.75) scale(129.77 -129.77)" gradientUnits="userSpaceOnUse"><stop offset="0" stop-color="#009fe3"></stop><stop offset="1" stop-color="#84ae86"></stop></linearGradient><linearGradient id="Nieuwe_verloopstaal_1" x1="44.69" y1="74.45" x2="293.26" y2="75.01" gradientUnits="userSpaceOnUse"><stop offset="0" stop-color="#6ead94"></stop><stop offset="1" stop-color="#009fe3"></stop><stop offset="1" stop-color="#84ae86"></stop></linearGradient><linearGradient id="Nieuwe_verloopstaal_1-2" x1="44.68" y1="76.3" x2="293.25" y2="76.86" xlink:href="#Nieuwe_verloopstaal_1"></linearGradient><linearGradient id="Nieuwe_verloopstaal_1-3" x1="44.68" y1="76.22" x2="293.25" y2="76.77" xlink:href="#Nieuwe_verloopstaal_1"></linearGradient><linearGradient id="Nieuwe_verloopstaal_1-4" x1="44.68" y1="76.24" x2="293.25" y2="76.8" xlink:href="#Nieuwe_verloopstaal_1"></linearGradient><linearGradient id="Nieuwe_verloopstaal_1-5" x1="44.68" y1="76.16" x2="293.25" y2="76.72" xlink:href="#Nieuwe_verloopstaal_1"></linearGradient><linearGradient id="Nieuwe_verloopstaal_1-6" x1="44.68" y1="74.84" x2="293.26" y2="75.4" xlink:href="#Nieuwe_verloopstaal_1"></linearGradient><linearGradient id="Nieuwe_verloopstaal_1-7" x1="44.68" y1="76.17" x2="293.25" y2="76.73" xlink:href="#Nieuwe_verloopstaal_1"></linearGradient><linearGradient id="Nieuwe_verloopstaal_1-8" x1="44.68" y1="76.15" x2="293.25" y2="76.71" xlink:href="#Nieuwe_verloopstaal_1"></linearGradient><linearGradient id="Nieuwe_verloopstaal_1-9" x1="44.68" y1="76.08" x2="293.25" y2="76.63" xlink:href="#Nieuwe_verloopstaal_1"></linearGradient><linearGradient id="Nieuwe_verloopstaal_1-10" x1="44.68" y1="76.11" x2="293.25" y2="76.67" xlink:href="#Nieuwe_verloopstaal_1"></linearGradient><linearGradient id="Nieuwe_verloopstaal_1-11" x1="44.69" y1="74.05" x2="293.26" y2="74.61" xlink:href="#Nieuwe_verloopstaal_1"></linearGradient><linearGradient id="Nieuwe_verloopstaal_1-12" x1="44.68" y1="74.74" x2="293.26" y2="75.29" xlink:href="#Nieuwe_verloopstaal_1"></linearGradient><linearGradient id="Nieuwe_verloopstaal_1-13" x1="44.69" y1="74.02" x2="293.26" y2="74.58" xlink:href="#Nieuwe_verloopstaal_1"></linearGradient><linearGradient id="Nieuwe_verloopstaal_1-14" x1="44.68" y1="76.04" x2="293.25" y2="76.6" xlink:href="#Nieuwe_verloopstaal_1"></linearGradient><linearGradient id="Nieuwe_verloopstaal_1-15" x1="44.68" y1="76.02" x2="293.25" y2="76.58" xlink:href="#Nieuwe_verloopstaal_1"></linearGradient><linearGradient id="Nieuwe_verloopstaal_1-16" x1="44.68" y1="75.98" x2="293.25" y2="76.54" xlink:href="#Nieuwe_verloopstaal_1"></linearGradient><linearGradient id="Nieuwe_verloopstaal_1-17" x1="44.68" y1="75.97" x2="293.25" y2="76.53" xlink:href="#Nieuwe_verloopstaal_1"></linearGradient><linearGradient id="Nieuwe_verloopstaal_1-18" x1="44.68" y1="75.95" x2="293.25" y2="76.51" xlink:href="#Nieuwe_verloopstaal_1"></linearGradient><linearGradient id="Nieuwe_verloopstaal_1-19" x1="44.68" y1="75.94" x2="293.25" y2="76.49" xlink:href="#Nieuwe_verloopstaal_1"></linearGradient><linearGradient id="Nieuwe_verloopstaal_1-20" x1="44.68" y1="75.86" x2="293.25" y2="76.42" xlink:href="#Nieuwe_verloopstaal_1"></linearGradient><linearGradient id="Nieuwe_verloopstaal_1-21" x1="44.68" y1="75.89" x2="293.25" y2="76.45" xlink:href="#Nieuwe_verloopstaal_1"></linearGradient><linearGradient id="Nieuwe_verloopstaal_1-22" x1="44.69" y1="73.89" x2="293.26" y2="74.45" xlink:href="#Nieuwe_verloopstaal_1"></linearGradient><linearGradient id="Nieuwe_verloopstaal_1-23" x1="44.69" y1="73.88" x2="293.26" y2="74.44" xlink:href="#Nieuwe_verloopstaal_1"></linearGradient><linearGradient id="Nieuwe_verloopstaal_1-24" x1="44.68" y1="75.84" x2="293.25" y2="76.4" xlink:href="#Nieuwe_verloopstaal_1"></linearGradient><linearGradient id="Nieuwe_verloopstaal_1-25" x1="44.68" y1="75.76" x2="293.25" y2="76.32" xlink:href="#Nieuwe_verloopstaal_1"></linearGradient></defs><path class="cls-21" d="m41.24,78.74c-.78,0-1.51.22-2.28.35-.75.13-1.51.23-2.28.29-1.54.11-3.08.09-4.62-.07-3.09-.31-6.13-1.14-8.98-2.36-6.5-2.8-11.73-7.77-15.72-13.54-2.44-3.53-4.42-7.37-6.04-11.34-.22-.53-.99-.11-.79.42,2.83,7.35,6.91,14.36,12.78,19.69,4.9,4.45,10.95,7.64,17.54,8.6,1.78.26,3.59.35,5.38.25.9-.05,1.8-.14,2.7-.28.89-.14,1.8-.27,2.6-.71.58-.32.41-1.3-.3-1.3Z"></path><path class="cls-21" d="m39.78,84.05c-8.58.7-17.39-1.85-24.3-6.99-1.99-1.48-3.82-3.18-5.46-5.04-.26-.3-.71.12-.45.42,5.82,6.69,13.99,11.09,22.73,12.48,2.46.39,4.95.53,7.44.41.83-.04.85-1.35.04-1.28Z"></path><path class="cls-21" d="m28.66,86.69c-1.2-.39-2.51-.47-3.73-.81-1.31-.36-2.59-.83-3.82-1.39-2.4-1.1-4.62-2.52-6.61-4.26-.33-.29-.85.18-.51.48,2.06,1.8,4.36,3.3,6.86,4.41,1.19.53,2.42.98,3.67,1.34,1.26.37,2.72.85,4.04.78.31-.01.41-.45.09-.55Z"></path><path class="cls-21" d="m30.54,75.82c-.5-.18-1.06-.15-1.59-.19-.65-.05-1.3-.15-1.93-.31-1.21-.31-2.33-.82-3.37-1.5-.35-.23-.68.32-.34.55,1.1.74,2.32,1.31,3.61,1.65,1.07.29,2.6.69,3.66.2.18-.08.13-.34-.04-.4Z"></path><g class="cls-3"><rect class="cls-32" x="46.83" y="-18" width="52.99" height="103.43" transform="translate(28.31 100.71) rotate(-80.79)"></rect></g><g class="cls-2"><rect class="cls-31" x="25.97" y="5.18" width="103.43" height="52.99" transform="translate(-.11 .27) rotate(-.2)"></rect></g><path class="cls-20" d="m138.65,48.7c.11-.02.22-.03.33-.04.11,0,.23-.01.34-.01s.23,0,.35.01c.11,0,.23.02.33.04v9.54c-.11.02-.21.03-.33.04-.11,0-.23.01-.35.01-.12,0-.23,0-.35-.01-.12,0-.23-.02-.33-.04v-9.54Z"></path><path class="cls-20" d="m142.23,51.43c.1-.02.19-.03.29-.04s.19-.01.29-.01.19,0,.27.01.17.02.27.04c.03.13.05.31.08.54.03.23.04.41.04.56.09-.15.2-.3.34-.45.14-.15.29-.29.47-.4.18-.12.38-.22.61-.29.23-.08.48-.11.76-.11.78,0,1.35.22,1.72.67.37.45.56,1.11.56,1.98v4.31c-.1.02-.21.03-.33.04-.12,0-.23.01-.33.01s-.21,0-.32-.01c-.12,0-.23-.02-.33-.04v-3.95c0-.63-.1-1.09-.29-1.39-.2-.3-.5-.44-.93-.44-.25,0-.48.04-.7.13-.22.09-.42.23-.58.41-.17.19-.3.43-.4.72s-.15.65-.15,1.07v3.45c-.1.02-.21.03-.33.04-.12,0-.23.01-.33.01s-.21,0-.33-.01c-.12,0-.23-.02-.33-.04v-6.81Z"></path><path class="cls-20" d="m150.3,52.47h-.86c-.02-.07-.03-.15-.04-.25s-.01-.18-.01-.27,0-.18.01-.27.02-.17.04-.25h2.15v6.81c-.1.02-.21.03-.33.04-.12,0-.23.01-.33.01-.09,0-.19,0-.31-.01-.12,0-.23-.02-.33-.04v-5.77Zm-.29-2.53c-.02-.11-.03-.22-.03-.35,0-.12,0-.23,0-.33s0-.21,0-.33c0-.12.02-.23.03-.33.11-.02.24-.03.37-.04s.25-.01.35-.01.21,0,.34.01.25.02.36.04c.02.1.03.21.03.33,0,.12,0,.23,0,.33s0,.21,0,.33c0,.12-.02.24-.03.35-.11.02-.22.03-.35.04-.13,0-.24.01-.34.01-.11,0-.23,0-.36-.01s-.26-.02-.37-.04Z"></path><path class="cls-20" d="m153.97,52.48h-1.03l-.05-.19,2.28-2.55h.11v1.69h1.72c.04.15.05.32.05.5,0,.1,0,.19-.01.28,0,.09-.02.18-.04.27h-1.72v3.1c0,.37.01.67.05.89.03.22.08.39.16.51.08.12.18.2.31.24.13.04.29.06.48.06.15,0,.29-.01.42-.03s.25-.05.36-.07c.06.18.1.36.11.54.01.19.02.35.02.49-.18.04-.36.08-.56.1s-.4.03-.62.03c-.64,0-1.13-.15-1.49-.46-.36-.31-.54-.82-.54-1.54v-3.86Z"></path><path class="cls-20" d="m158.87,52.47h-.86c-.02-.07-.03-.15-.04-.25s-.01-.18-.01-.27,0-.18.01-.27.02-.17.04-.25h2.15v6.81c-.1.02-.21.03-.32.04-.12,0-.23.01-.33.01-.09,0-.19,0-.31-.01-.12,0-.23-.02-.32-.04v-5.77Zm-.29-2.53c-.02-.11-.03-.22-.03-.35,0-.12,0-.23,0-.33s0-.21,0-.33c0-.12.01-.23.03-.33.11-.02.24-.03.37-.04s.25-.01.34-.01.21,0,.35.01c.13,0,.25.02.36.04.02.1.03.21.03.33,0,.12,0,.23,0,.33s0,.21,0,.33c0,.12-.02.24-.03.35-.11.02-.22.03-.35.04-.13,0-.24.01-.34.01-.11,0-.23,0-.36-.01s-.26-.02-.37-.04Z"></path><path class="cls-20" d="m165.89,53.76c0-.52-.13-.88-.4-1.09-.26-.2-.65-.31-1.15-.31-.31,0-.6.02-.87.07-.27.05-.53.11-.79.19-.17-.29-.25-.64-.25-1.05.3-.1.63-.17,1-.23.36-.05.71-.08,1.05-.08.88,0,1.56.2,2.02.6.46.4.69,1.05.69,1.93v4.26c-.31.07-.69.14-1.13.22s-.89.11-1.35.11c-.43,0-.83-.04-1.17-.12-.35-.08-.65-.21-.89-.38-.24-.18-.43-.4-.56-.68-.13-.27-.2-.61-.2-1s.08-.71.23-1c.15-.29.37-.53.63-.72.27-.19.57-.33.92-.42.34-.09.71-.14,1.09-.14.28,0,.51,0,.7.02s.33.03.46.05v-.25Zm0,1.29c-.13-.02-.3-.04-.5-.05-.2-.02-.38-.03-.52-.03-.55,0-.97.1-1.25.31-.29.2-.43.51-.43.93,0,.27.05.47.15.62.1.15.22.27.36.35.15.08.31.13.48.15s.34.03.5.03c.2,0,.41-.01.63-.03.22-.02.41-.06.58-.1v-2.16Z"></path><path class="cls-20" d="m169.4,52.48h-1.04l-.05-.19,2.28-2.55h.11v1.69h1.72c.04.15.05.32.05.5,0,.1,0,.19-.01.28,0,.09-.02.18-.04.27h-1.72v3.1c0,.37.01.67.05.89s.08.39.16.51c.08.12.18.2.31.24.13.04.29.06.48.06.15,0,.29-.01.42-.03s.25-.05.36-.07c.06.18.1.36.11.54.01.19.02.35.02.49-.18.04-.36.08-.56.1s-.4.03-.62.03c-.64,0-1.13-.15-1.49-.46-.36-.31-.54-.82-.54-1.54v-3.86Z"></path><path class="cls-20" d="m174.3,52.47h-.86c-.02-.07-.03-.15-.04-.25s-.01-.18-.01-.27,0-.18.01-.27.02-.17.04-.25h2.15v6.81c-.1.02-.21.03-.32.04-.12,0-.23.01-.33.01-.09,0-.19,0-.31-.01-.12,0-.23-.02-.32-.04v-5.77Zm-.29-2.53c-.02-.11-.03-.22-.03-.35,0-.12,0-.23,0-.33s0-.21,0-.33c0-.12.01-.23.03-.33.11-.02.24-.03.37-.04s.25-.01.34-.01.21,0,.35.01c.13,0,.25.02.36.04.02.1.03.21.03.33,0,.12,0,.23,0,.33s0,.21,0,.33c0,.12-.02.24-.03.35-.11.02-.22.03-.35.04-.13,0-.24.01-.34.01-.11,0-.23,0-.36-.01s-.26-.02-.37-.04Z"></path><path class="cls-20" d="m178.7,55.16c.02.74.21,1.29.58,1.63.37.35.91.52,1.63.52.63,0,1.22-.11,1.79-.33.07.13.13.29.17.48.04.19.07.38.08.56-.29.12-.61.22-.96.28-.35.06-.74.09-1.16.09-.62,0-1.15-.09-1.59-.26s-.81-.42-1.09-.73c-.29-.31-.5-.69-.63-1.11-.13-.43-.2-.9-.2-1.41s.06-.98.19-1.41c.13-.44.33-.82.59-1.14.27-.32.6-.58,1-.77.4-.19.88-.29,1.43-.29.47,0,.88.08,1.23.24s.65.38.89.66c.24.28.42.61.54,1,.12.38.19.8.19,1.25,0,.12,0,.25-.01.39s-.02.25-.03.35h-4.63Zm3.37-.98c0-.25-.03-.48-.1-.71s-.16-.42-.29-.59c-.13-.17-.29-.3-.49-.4-.2-.1-.44-.15-.71-.15-.54,0-.95.16-1.24.49-.29.33-.46.78-.52,1.37h3.36Z"></path><path class="cls-20" d="m185.5,52.47h-1.11c-.04-.14-.05-.31-.05-.52s.02-.37.05-.52h1.11v-.48c0-.84.21-1.48.63-1.92.42-.44,1.03-.66,1.84-.66.22,0,.42.01.58.03.17.02.33.06.48.1-.02.22-.04.41-.07.57-.03.16-.07.32-.13.49-.09-.02-.19-.04-.31-.06-.12-.02-.26-.03-.43-.03-.2,0-.37.02-.52.06-.15.04-.29.12-.4.23-.11.11-.2.27-.26.46-.06.2-.09.45-.09.76v.44h1.74c.03.18.04.36.04.54,0,.17-.01.33-.04.49h-1.74v5.77c-.1.02-.21.03-.33.04-.12,0-.23.01-.33.01s-.21,0-.33-.01c-.12,0-.23-.02-.33-.04v-5.77Z"></path><path class="cls-20" d="m193.19,48.7c.1-.02.2-.03.31-.04s.21-.01.31-.01.2,0,.31.01c.11,0,.21.02.31.04l4.15,7.16v-7.16c.11-.02.22-.03.33-.04s.23-.01.34-.01c.1,0,.2,0,.31.01.11,0,.21.02.3.04v9.54c-.1.02-.2.03-.31.04-.11,0-.21.01-.31.01s-.2,0-.31-.01c-.11,0-.21-.02-.31-.04l-4.17-7.12v7.12c-.1.02-.2.03-.31.04-.11,0-.22.01-.33.01-.12,0-.23,0-.34-.01-.11,0-.21-.02-.3-.04v-9.54Z"></path><path class="cls-20" d="m203.09,55.16c.02.74.21,1.29.58,1.63.37.35.91.52,1.63.52.63,0,1.22-.11,1.79-.33.07.13.13.29.17.48.04.19.07.38.08.56-.29.12-.61.22-.96.28-.35.06-.74.09-1.16.09-.62,0-1.15-.09-1.59-.26s-.81-.42-1.09-.73c-.29-.31-.5-.69-.63-1.11-.13-.43-.2-.9-.2-1.41s.06-.98.19-1.41c.13-.44.33-.82.59-1.14.27-.32.6-.58,1-.77.4-.19.88-.29,1.43-.29.47,0,.88.08,1.23.24.35.16.65.38.89.66.24.28.42.61.54,1,.12.38.19.8.19,1.25,0,.12,0,.25-.01.39s-.02.25-.03.35h-4.63Zm3.37-.98c0-.25-.03-.48-.1-.71s-.16-.42-.29-.59c-.13-.17-.29-.3-.49-.4-.2-.1-.44-.15-.71-.15-.54,0-.95.16-1.24.49-.29.33-.46.78-.52,1.37h3.36Z"></path><path class="cls-20" d="m213.85,48.52c.1-.02.21-.03.33-.04.12,0,.23-.01.32-.01.1,0,.21,0,.32.01.12,0,.23.02.33.04v9.54c-.34.1-.71.18-1.13.25-.42.07-.88.1-1.39.1-.48,0-.93-.06-1.36-.18-.43-.12-.8-.32-1.12-.59-.32-.27-.57-.63-.76-1.06-.19-.43-.28-.97-.28-1.61,0-.55.08-1.05.25-1.5.16-.45.4-.84.7-1.16.3-.32.66-.57,1.08-.75.42-.18.89-.27,1.4-.27.23,0,.46.02.7.05.23.04.44.08.62.13v-2.96Zm0,4.07c-.18-.07-.37-.12-.57-.16-.2-.04-.42-.05-.66-.05-.36,0-.68.07-.94.2-.27.13-.48.31-.66.54-.17.23-.3.5-.38.82-.08.31-.13.66-.13,1.03,0,.84.21,1.44.6,1.8.39.36.92.54,1.59.54.23,0,.44-.01.64-.03s.37-.06.52-.1v-4.59Z"></path><path class="cls-20" d="m218.24,55.16c.02.74.21,1.29.58,1.63.37.35.91.52,1.63.52.63,0,1.22-.11,1.79-.33.07.13.13.29.17.48.04.19.07.38.08.56-.29.12-.61.22-.96.28-.35.06-.74.09-1.16.09-.62,0-1.15-.09-1.59-.26s-.81-.42-1.09-.73c-.29-.31-.5-.69-.63-1.11-.13-.43-.2-.9-.2-1.41s.06-.98.19-1.41c.13-.44.33-.82.59-1.14.27-.32.6-.58,1-.77.4-.19.88-.29,1.43-.29.47,0,.88.08,1.23.24s.65.38.89.66c.24.28.42.61.54,1,.12.38.19.8.19,1.25,0,.12,0,.25-.01.39s-.02.25-.03.35h-4.63Zm3.37-.98c0-.25-.03-.48-.1-.71s-.16-.42-.29-.59c-.13-.17-.29-.3-.49-.4-.2-.1-.44-.15-.71-.15-.54,0-.95.16-1.24.49-.29.33-.46.78-.52,1.37h3.36Z"></path><path class="cls-20" d="m224.64,51.43c.1-.02.19-.03.28-.04.09,0,.18-.01.28-.01s.19,0,.29.01c.1,0,.19.02.27.04.03.13.05.31.08.52s.04.4.04.55c.19-.3.43-.56.74-.78.3-.22.7-.33,1.17-.33.07,0,.14,0,.22,0,.08,0,.14.01.19.02.02.08.03.16.04.25,0,.09.01.18.01.28,0,.11,0,.22-.02.33-.01.12-.03.23-.05.33-.07-.02-.14-.03-.22-.03h-.18c-.24,0-.47.03-.68.1s-.41.18-.58.35c-.17.17-.31.4-.41.69s-.15.67-.15,1.13v3.38c-.1.02-.21.03-.33.04-.12,0-.23.01-.33.01s-.21,0-.33-.01c-.12,0-.23-.02-.34-.04v-6.81Z"></path><path class="cls-20" d="m229.55,48.52c.1-.02.21-.03.33-.04.12,0,.23-.01.32-.01s.21,0,.33.01c.12,0,.23.02.33.04v7.67c0,.25.02.44.07.58.04.14.1.25.18.33.07.08.16.12.26.15.1.02.21.03.33.03.08,0,.17,0,.27-.01.1,0,.19-.02.26-.04.08.31.12.65.12,1.01-.12.04-.27.07-.45.09-.18.01-.34.02-.49.02-.26,0-.5-.03-.72-.09-.22-.06-.42-.16-.58-.31s-.3-.33-.4-.57c-.1-.24-.15-.54-.15-.89v-7.96Z"></path><path class="cls-20" d="m237.12,53.76c0-.52-.13-.88-.4-1.09-.26-.2-.65-.31-1.15-.31-.31,0-.6.02-.87.07-.27.05-.53.11-.79.19-.17-.29-.25-.64-.25-1.05.3-.1.63-.17,1-.23.36-.05.71-.08,1.05-.08.88,0,1.56.2,2.02.6.46.4.69,1.05.69,1.93v4.26c-.31.07-.69.14-1.13.22s-.89.11-1.35.11c-.43,0-.83-.04-1.17-.12-.35-.08-.65-.21-.89-.38-.24-.18-.43-.4-.56-.68-.13-.27-.2-.61-.2-1s.08-.71.23-1c.15-.29.37-.53.63-.72.27-.19.57-.33.92-.42.34-.09.71-.14,1.09-.14.28,0,.51,0,.7.02s.33.03.46.05v-.25Zm0,1.29c-.13-.02-.3-.04-.5-.05-.2-.02-.38-.03-.52-.03-.55,0-.97.1-1.25.31-.29.2-.43.51-.43.93,0,.27.05.47.15.62.1.15.22.27.36.35.15.08.31.13.48.15s.34.03.5.03c.2,0,.41-.01.63-.03.22-.02.41-.06.58-.1v-2.16Z"></path><path class="cls-20" d="m240.39,51.43c.1-.02.19-.03.29-.04s.19-.01.29-.01.19,0,.27.01c.08,0,.17.02.27.04.03.13.05.31.08.54s.04.41.04.56c.09-.15.2-.3.34-.45.14-.15.29-.29.47-.4s.38-.22.61-.29c.23-.08.48-.11.76-.11.78,0,1.35.22,1.72.67.37.45.56,1.11.56,1.98v4.31c-.1.02-.21.03-.33.04-.12,0-.23.01-.33.01s-.21,0-.33-.01c-.12,0-.23-.02-.33-.04v-3.95c0-.63-.1-1.09-.29-1.39-.2-.3-.5-.44-.93-.44-.25,0-.48.04-.7.13-.22.09-.42.23-.58.41-.17.19-.3.43-.41.72s-.15.65-.15,1.07v3.45c-.1.02-.21.03-.33.04-.12,0-.23.01-.33.01s-.21,0-.33-.01c-.12,0-.24-.02-.33-.04v-6.81Z"></path><path class="cls-20" d="m252.42,48.52c.1-.02.21-.03.33-.04.12,0,.23-.01.32-.01.1,0,.21,0,.32.01.12,0,.23.02.33.04v9.54c-.34.1-.71.18-1.13.25-.42.07-.88.1-1.39.1-.48,0-.93-.06-1.36-.18-.43-.12-.8-.32-1.12-.59-.32-.27-.57-.63-.76-1.06-.19-.43-.28-.97-.28-1.61,0-.55.08-1.05.25-1.5.16-.45.4-.84.7-1.16.3-.32.66-.57,1.08-.75.42-.18.89-.27,1.4-.27.23,0,.46.02.7.05.23.04.44.08.62.13v-2.96Zm0,4.07c-.18-.07-.37-.12-.57-.16-.2-.04-.42-.05-.66-.05-.36,0-.68.07-.94.2-.27.13-.48.31-.66.54-.17.23-.3.5-.38.82-.08.31-.13.66-.13,1.03,0,.84.21,1.44.6,1.8.39.36.92.54,1.59.54.23,0,.44-.01.64-.03s.37-.06.52-.1v-4.59Z"></path><path class="cls-22" d="m56.93,74.98c-.42-.16-.8-.34-1.13-.53-.33-.19-.62-.42-.85-.68-.23-.27-.42-.58-.55-.95-.13-.37-.19-.81-.19-1.33,0-.63.11-1.18.32-1.66.22-.48.52-.89.91-1.21s.87-.57,1.42-.74,1.18-.25,1.87-.25c.63,0,1.22.05,1.77.17.55.11,1.12.27,1.73.48-.07.72-.27,1.42-.59,2.11-.18-.07-.37-.15-.56-.22s-.39-.14-.61-.18c-.22-.05-.46-.09-.73-.12-.27-.03-.58-.05-.92-.05-.21,0-.42.02-.64.06-.22.04-.41.1-.58.2s-.31.24-.43.43c-.11.19-.17.44-.17.75,0,.25.04.45.13.62.09.17.2.31.35.43.15.12.31.22.5.3.19.08.37.16.55.23l1.11.43c.47.18.89.38,1.28.57.38.2.71.44.97.73.26.29.47.64.62,1.05.15.41.22.92.22,1.53s-.11,1.2-.34,1.72-.56.96-.99,1.33c-.43.37-.96.66-1.6.87-.64.21-1.37.31-2.19.31-.41,0-.77-.01-1.09-.04-.32-.02-.63-.06-.92-.12-.29-.06-.58-.13-.86-.21-.28-.09-.58-.19-.89-.31.04-.36.1-.73.2-1.12.1-.39.22-.78.35-1.17.52.21,1,.37,1.46.47.46.1.94.16,1.46.16.78,0,1.39-.14,1.83-.43.44-.29.67-.73.67-1.32,0-.3-.05-.54-.16-.74-.1-.2-.24-.36-.41-.5-.17-.14-.35-.25-.56-.34-.21-.09-.43-.18-.65-.27l-1.13-.43Z"></path><path class="cls-24" d="m69.45,74.85c0-.3-.05-.54-.15-.72s-.23-.33-.41-.43c-.17-.1-.39-.18-.64-.21s-.53-.06-.84-.06c-.67,0-1.37.13-2.13.39-.17-.32-.3-.62-.39-.91-.09-.28-.13-.62-.13-1.02.54-.18,1.08-.32,1.63-.41.54-.09,1.05-.13,1.52-.13,1.28,0,2.28.31,3,.92.72.62,1.08,1.6,1.08,2.96v5.55c-.43.14-.96.27-1.57.39-.62.12-1.31.18-2.09.18-.63,0-1.2-.05-1.73-.17-.52-.11-.97-.3-1.35-.55-.38-.26-.67-.59-.87-1-.2-.41-.31-.91-.31-1.5s.13-1.09.38-1.49c.25-.4.58-.72.98-.96s.85-.41,1.34-.52.99-.16,1.48-.16c.36,0,.75.02,1.18.05v-.22Zm0,1.9c-.15-.02-.31-.05-.48-.06-.17-.02-.33-.03-.46-.03-.6,0-1.08.11-1.43.32-.35.22-.53.56-.53,1.04,0,.32.07.57.2.74.14.17.3.3.49.38.19.08.39.13.61.15.22.02.4.03.56.03.19,0,.37-.01.55-.05s.34-.06.48-.08v-2.44Z"></path><path class="cls-23" d="m74.33,71.57c.17-.04.35-.06.52-.08.17-.02.36-.03.57-.03s.39,0,.55.03c.16.02.33.05.5.08.04.06.07.15.1.27.03.12.06.24.08.37.02.13.05.26.06.38.02.12.03.23.05.31.1-.18.23-.37.39-.55.16-.18.35-.35.57-.5s.47-.27.75-.36c.28-.09.59-.14.93-.14,1.49,0,2.45.57,2.87,1.7.25-.45.59-.85,1.04-1.19.45-.34,1.02-.51,1.71-.51,1.08,0,1.88.3,2.39.9.51.6.77,1.53.77,2.8v6.08c-.44.07-.88.11-1.31.11s-.87-.04-1.31-.11v-5.4c0-.67-.08-1.18-.25-1.53-.17-.36-.5-.54-1.01-.54-.21,0-.42.03-.62.09s-.39.18-.55.34c-.17.17-.3.4-.41.7-.1.3-.16.69-.16,1.17v5.16c-.44.07-.88.11-1.31.11s-.87-.04-1.31-.11v-5.4c0-.67-.08-1.18-.25-1.53-.17-.36-.5-.54-1.01-.54-.21,0-.42.03-.63.09s-.4.18-.56.36c-.17.18-.3.43-.4.75-.1.32-.15.74-.15,1.26v5.01c-.44.07-.88.11-1.31.11s-.87-.04-1.31-.11v-9.56Z"></path><path class="cls-28" d="m92.67,77.16c.05.74.31,1.28.78,1.61.47.33,1.08.5,1.85.5.42,0,.85-.04,1.29-.12.44-.08.85-.19,1.25-.34.14.25.25.54.35.89.1.35.15.71.17,1.11-.96.37-2.05.55-3.25.55-.89,0-1.65-.12-2.28-.37-.64-.25-1.15-.59-1.55-1.03-.4-.44-.7-.96-.89-1.56-.19-.6-.29-1.26-.29-1.98s.1-1.36.3-1.98c.2-.62.49-1.15.88-1.61s.87-.82,1.44-1.08c.57-.26,1.24-.4,2.01-.4.67,0,1.26.12,1.78.35.52.23.96.55,1.32.96.36.41.64.89.82,1.45.19.56.28,1.16.28,1.8,0,.23,0,.46-.03.69-.02.23-.04.41-.06.55h-6.14Zm3.75-1.83c-.02-.59-.19-1.07-.49-1.43-.3-.36-.72-.55-1.27-.55-.62,0-1.08.17-1.4.52-.32.35-.51.83-.57,1.46h3.73Z"></path><path class="cls-27" d="m100.97,71.57c.17-.04.35-.06.52-.08.17-.02.36-.03.57-.03s.39,0,.55.03c.16.02.33.05.5.08.04.06.07.15.1.27.03.12.06.24.08.37.02.13.05.26.06.38.02.12.03.23.05.31.12-.18.27-.37.44-.55.17-.18.37-.35.6-.5.23-.15.48-.27.77-.36.28-.09.6-.14.94-.14,1.08,0,1.9.3,2.45.89s.82,1.52.82,2.79v6.1c-.44.07-.88.11-1.31.11s-.87-.04-1.31-.11v-5.4c0-.67-.1-1.18-.3-1.53-.2-.36-.56-.54-1.06-.54-.21,0-.43.03-.65.09-.22.06-.42.18-.6.36s-.32.43-.43.75c-.11.32-.17.74-.17,1.26v5.01c-.44.07-.88.11-1.31.11s-.87-.04-1.31-.11v-9.56Z"></path><path class="cls-25" d="m116.15,73.57h-1.2l-.09-.37,3.46-4.42h.43v2.79h2.24c.04.18.06.35.07.5.01.15.02.3.02.46,0,.17,0,.34-.02.5-.01.16-.04.34-.07.54h-2.24v3.75c0,.38.03.69.09.92.06.23.15.42.27.55s.26.23.43.28c.17.05.38.07.61.07.18,0,.37-.01.55-.05s.34-.06.47-.08c.09.23.15.48.19.73.04.25.06.48.06.67,0,.14,0,.25,0,.34,0,.09-.02.18-.03.27-.57.14-1.15.2-1.76.2-1.12,0-1.98-.26-2.57-.79s-.89-1.38-.89-2.56v-4.33Z"></path><path class="cls-29" d="m122.97,71.57c.19-.04.36-.06.53-.08.17-.02.35-.03.55-.03.18,0,.37.01.55.04.18.02.35.06.53.09.04.06.07.15.1.27.03.12.06.24.08.37.02.13.05.26.06.39s.03.24.05.32c.27-.38.6-.72,1-1.03s.89-.45,1.48-.45c.12,0,.26,0,.43.02.16.01.28.03.35.06.02.12.04.27.06.43.01.16.02.33.02.5,0,.21,0,.44-.03.68s-.05.48-.1.7c-.14-.02-.29-.04-.45-.04h-.3c-.21,0-.44.02-.7.06-.26.04-.51.16-.74.34s-.43.46-.58.83c-.15.37-.23.89-.23,1.55v4.55c-.22.04-.44.06-.67.07-.22.01-.44.02-.65.02s-.42,0-.64-.02c-.22-.01-.44-.04-.67-.07v-9.58Z"></path><path class="cls-26" d="m134.99,74.85c0-.3-.05-.54-.15-.72s-.23-.33-.41-.43c-.17-.1-.39-.18-.64-.21s-.53-.06-.84-.06c-.67,0-1.37.13-2.13.39-.17-.32-.3-.62-.39-.91-.09-.28-.13-.62-.13-1.02.54-.18,1.08-.32,1.63-.41.54-.09,1.05-.13,1.52-.13,1.28,0,2.28.31,3,.92.72.62,1.08,1.6,1.08,2.96v5.55c-.43.14-.96.27-1.57.39-.62.12-1.31.18-2.09.18-.63,0-1.2-.05-1.73-.17-.52-.11-.97-.3-1.35-.55-.38-.26-.67-.59-.87-1-.2-.41-.31-.91-.31-1.5s.13-1.09.38-1.49c.25-.4.58-.72.98-.96s.85-.41,1.34-.52.99-.16,1.48-.16c.36,0,.75.02,1.18.05v-.22Zm0,1.9c-.15-.02-.31-.05-.48-.06-.17-.02-.33-.03-.46-.03-.6,0-1.08.11-1.43.32-.35.22-.53.56-.53,1.04,0,.32.07.57.2.74.14.17.3.3.49.38.19.08.39.13.61.15.22.02.4.03.56.03.19,0,.37-.01.55-.05s.34-.06.48-.08v-2.44Z"></path><path class="cls-30" d="m139.87,71.57c.17-.04.35-.06.52-.08.17-.02.36-.03.57-.03s.39,0,.55.03c.16.02.33.05.5.08.04.06.07.15.1.27.03.12.06.24.08.37.02.13.05.26.06.38.02.12.03.23.05.31.12-.18.27-.37.44-.55.17-.18.37-.35.6-.5.23-.15.48-.27.77-.36.28-.09.6-.14.94-.14,1.08,0,1.9.3,2.45.89s.82,1.52.82,2.79v6.1c-.44.07-.88.11-1.31.11s-.87-.04-1.31-.11v-5.4c0-.67-.1-1.18-.3-1.53-.2-.36-.56-.54-1.06-.54-.21,0-.43.03-.65.09-.22.06-.42.18-.6.36s-.32.43-.43.75c-.11.32-.17.74-.17,1.26v5.01c-.44.07-.88.11-1.31.11s-.87-.04-1.31-.11v-9.56Z"></path><path class="cls-8" d="m152.57,76.97c-.69-.2-1.23-.49-1.62-.88-.39-.39-.58-.97-.58-1.75,0-.94.34-1.67,1.01-2.2.67-.53,1.59-.8,2.75-.8.48,0,.96.04,1.42.13.47.09.94.22,1.42.39-.02.32-.09.65-.18,1-.1.35-.22.65-.35.91-.3-.12-.62-.23-.98-.32-.36-.09-.73-.14-1.13-.14-.42,0-.75.06-.98.19-.23.13-.35.34-.35.62s.08.46.25.57c.17.11.4.22.71.31l1.05.31c.34.1.66.22.93.36.28.14.51.32.71.53s.35.47.46.78c.11.31.17.68.17,1.13s-.1.88-.29,1.28c-.19.4-.47.74-.83,1.03-.36.29-.8.52-1.32.68-.52.17-1.1.25-1.76.25-.3,0-.57,0-.81-.03-.25-.02-.48-.05-.71-.09-.23-.04-.45-.1-.67-.16-.22-.06-.46-.14-.72-.24.02-.33.08-.67.18-1.01.09-.34.21-.67.36-.99.41.16.79.28,1.16.36.36.08.74.12,1.14.12.17,0,.36-.01.56-.05.2-.03.39-.09.56-.17s.32-.18.43-.31.18-.3.18-.51c0-.3-.09-.51-.27-.64-.18-.13-.43-.24-.75-.34l-1.15-.33Z"></path><path class="cls-14" d="m159.75,73.57h-1.24c-.04-.16-.06-.33-.08-.51s-.03-.35-.03-.51c0-.33.04-.66.11-.98h3.81v9.56c-.44.07-.88.11-1.29.11s-.83-.04-1.28-.11v-7.56Zm-.39-3.6c-.07-.42-.11-.83-.11-1.24s.04-.81.11-1.24c.21-.04.43-.06.67-.08.24-.02.46-.03.66-.03.21,0,.44,0,.68.03.25.02.47.05.68.08.04.21.06.42.07.62.01.2.02.41.02.62,0,.2,0,.4-.02.61-.01.21-.04.42-.07.63-.21.04-.43.06-.67.07-.24.01-.47.02-.67.02-.2,0-.42,0-.67-.02-.25-.01-.47-.04-.68-.07Z"></path><path class="cls-13" d="m165.16,73.57h-1.2l-.09-.37,3.46-4.42h.43v2.79h2.24c.04.18.06.35.07.5.01.15.02.3.02.46,0,.17,0,.34-.02.5-.01.16-.04.34-.07.54h-2.24v3.75c0,.38.03.69.09.92.06.23.15.42.27.55s.26.23.43.28c.17.05.38.07.61.07.18,0,.37-.01.55-.05s.34-.06.47-.08c.09.23.15.48.18.73.04.25.06.48.06.67,0,.14,0,.25,0,.34,0,.09-.02.18-.03.27-.57.14-1.15.2-1.76.2-1.12,0-1.98-.26-2.57-.79s-.89-1.38-.89-2.56v-4.33Z"></path><path class="cls-18" d="m172.5,73.57h-1.24c-.04-.16-.06-.33-.08-.51-.02-.18-.03-.35-.03-.51,0-.33.04-.66.11-.98h3.81v9.56c-.44.07-.88.11-1.3.11s-.83-.04-1.28-.11v-7.56Zm-.39-3.6c-.07-.42-.11-.83-.11-1.24s.04-.81.11-1.24c.21-.04.43-.06.67-.08.24-.02.46-.03.66-.03.21,0,.44,0,.68.03.25.02.47.05.68.08.04.21.06.42.07.62s.02.41.02.62c0,.2,0,.4-.02.61s-.04.42-.07.63c-.21.04-.43.06-.67.07-.24.01-.47.02-.68.02-.2,0-.42,0-.67-.02-.25-.01-.47-.04-.68-.07Z"></path><path class="cls-19" d="m179.75,77.16c.05.74.31,1.28.78,1.61.47.33,1.08.5,1.85.5.42,0,.85-.04,1.29-.12.44-.08.85-.19,1.25-.34.14.25.25.54.35.89s.15.71.17,1.11c-.96.37-2.05.55-3.25.55-.89,0-1.65-.12-2.28-.37s-1.15-.59-1.55-1.03c-.4-.44-.7-.96-.89-1.56-.19-.6-.29-1.26-.29-1.98s.1-1.36.3-1.98c.2-.62.49-1.15.88-1.61.39-.46.87-.82,1.44-1.08.57-.26,1.24-.4,2.01-.4.67,0,1.26.12,1.78.35s.96.55,1.32.96c.36.41.64.89.82,1.45.18.56.28,1.16.28,1.8,0,.23,0,.46-.03.69-.02.23-.04.41-.06.55h-6.14Zm3.75-1.83c-.02-.59-.19-1.07-.49-1.43-.3-.36-.72-.55-1.27-.55-.62,0-1.08.17-1.4.52s-.51.83-.57,1.46h3.74Z"></path><path class="cls-17" d="m189.9,76.97c-.69-.2-1.23-.49-1.62-.88-.39-.39-.58-.97-.58-1.75,0-.94.34-1.67,1.01-2.2.67-.53,1.59-.8,2.75-.8.48,0,.95.04,1.42.13.47.09.94.22,1.42.39-.02.32-.09.65-.18,1s-.22.65-.35.91c-.3-.12-.62-.23-.98-.32-.36-.09-.73-.14-1.13-.14-.42,0-.75.06-.98.19-.23.13-.35.34-.35.62s.08.46.25.57c.17.11.4.22.71.31l1.05.31c.35.1.66.22.93.36s.51.32.71.53.35.47.46.78c.11.31.17.68.17,1.13s-.1.88-.29,1.28c-.19.4-.47.74-.83,1.03-.36.29-.8.52-1.32.68s-1.1.25-1.76.25c-.3,0-.57,0-.81-.03-.25-.02-.48-.05-.71-.09-.23-.04-.45-.1-.67-.16-.22-.06-.46-.14-.72-.24.02-.33.08-.67.18-1.01.09-.34.21-.67.36-.99.41.16.79.28,1.16.36.36.08.74.12,1.14.12.17,0,.36-.01.56-.05.2-.03.39-.09.56-.17.17-.08.32-.18.43-.31.12-.13.18-.3.18-.51,0-.3-.09-.51-.27-.64s-.43-.24-.75-.34l-1.15-.33Z"></path><path class="cls-16" d="m199.42,71.59c.3-.06.57-.1.82-.11.25-.01.47-.02.66-.02.25,0,.49,0,.74.02.25.01.47.04.68.09l2.09,7.12,2.05-7.12c.21-.04.43-.06.67-.08.23-.02.47-.03.7-.03.18,0,.4,0,.64.02.24.01.51.05.82.11l-3.62,9.54c-.23.04-.48.06-.74.07-.26.01-.47.02-.65.02-.18,0-.4,0-.63-.02-.23-.01-.46-.04-.67-.09l-3.57-9.52Z"></path><path class="cls-11" d="m212.4,77.16c.05.74.31,1.28.78,1.61.47.33,1.08.5,1.85.5.42,0,.85-.04,1.29-.12.44-.08.85-.19,1.25-.34.14.25.25.54.35.89s.15.71.17,1.11c-.96.37-2.05.55-3.25.55-.89,0-1.65-.12-2.28-.37s-1.15-.59-1.55-1.03c-.4-.44-.7-.96-.89-1.56-.19-.6-.29-1.26-.29-1.98s.1-1.36.3-1.98c.2-.62.49-1.15.88-1.61.39-.46.87-.82,1.44-1.08.57-.26,1.24-.4,2.01-.4.67,0,1.26.12,1.78.35s.96.55,1.32.96c.36.41.64.89.82,1.45.18.56.28,1.16.28,1.8,0,.23,0,.46-.03.69-.02.23-.04.41-.06.55h-6.14Zm3.75-1.83c-.02-.59-.19-1.07-.49-1.43-.3-.36-.72-.55-1.27-.55-.62,0-1.08.17-1.4.52s-.51.83-.57,1.46h3.74Z"></path><path class="cls-12" d="m220.7,71.57c.18-.04.36-.06.53-.08.17-.02.35-.03.55-.03.18,0,.37.01.54.04s.35.06.53.09c.04.06.07.15.1.27.03.12.06.24.08.37.02.13.05.26.06.39.02.13.03.24.05.32.27-.38.6-.72,1-1.03.39-.3.89-.45,1.48-.45.12,0,.27,0,.43.02.16.01.28.03.35.06.02.12.04.27.06.43.01.16.02.33.02.5,0,.21,0,.44-.03.68-.02.25-.05.48-.1.7-.14-.02-.29-.04-.45-.04h-.31c-.21,0-.44.02-.7.06-.26.04-.51.16-.74.34-.23.18-.43.46-.58.83-.15.37-.23.89-.23,1.55v4.55c-.22.04-.44.06-.67.07-.22.01-.44.02-.65.02s-.42,0-.64-.02c-.22-.01-.44-.04-.67-.07v-9.58Z"></path><path class="cls-15" d="m229.78,76.97c-.69-.2-1.23-.49-1.62-.88-.39-.39-.58-.97-.58-1.75,0-.94.34-1.67,1.01-2.2.67-.53,1.59-.8,2.75-.8.48,0,.95.04,1.42.13.47.09.94.22,1.42.39-.02.32-.09.65-.18,1s-.22.65-.35.91c-.3-.12-.62-.23-.98-.32-.36-.09-.73-.14-1.13-.14-.42,0-.75.06-.98.19-.23.13-.35.34-.35.62s.08.46.25.57c.17.11.4.22.71.31l1.05.31c.35.1.66.22.93.36s.51.32.71.53.35.47.46.78c.11.31.17.68.17,1.13s-.1.88-.29,1.28c-.19.4-.47.74-.83,1.03-.36.29-.8.52-1.32.68s-1.1.25-1.76.25c-.3,0-.57,0-.81-.03-.25-.02-.48-.05-.71-.09-.23-.04-.45-.1-.67-.16-.22-.06-.46-.14-.72-.24.02-.33.08-.67.18-1.01.09-.34.21-.67.36-.99.41.16.79.28,1.16.36.36.08.74.12,1.14.12.17,0,.36-.01.56-.05.2-.03.39-.09.56-.17.17-.08.32-.18.43-.31.12-.13.18-.3.18-.51,0-.3-.09-.51-.27-.64s-.43-.24-.75-.34l-1.15-.33Z"></path><path class="cls-4" d="m236.44,71.57c.17-.04.35-.06.52-.08.17-.02.36-.03.57-.03s.4,0,.55.03c.16.02.33.05.5.08.04.06.07.15.1.27s.06.24.08.37c.02.13.05.26.06.38.02.12.03.23.05.31.12-.18.27-.37.44-.55.17-.18.37-.35.6-.5.23-.15.48-.27.77-.36.28-.09.6-.14.94-.14,1.08,0,1.9.3,2.45.89s.82,1.52.82,2.79v6.1c-.44.07-.88.11-1.31.11s-.87-.04-1.31-.11v-5.4c0-.67-.1-1.18-.31-1.53-.2-.36-.56-.54-1.06-.54-.21,0-.43.03-.65.09-.22.06-.42.18-.6.36-.18.18-.32.43-.44.75-.11.32-.17.74-.17,1.26v5.01c-.44.07-.88.11-1.31.11s-.87-.04-1.31-.11v-9.56Z"></path><path class="cls-5" d="m249.38,77.16c.05.74.31,1.28.78,1.61.47.33,1.08.5,1.85.5.42,0,.85-.04,1.29-.12.44-.08.85-.19,1.25-.34.14.25.25.54.35.89s.15.71.17,1.11c-.96.37-2.05.55-3.25.55-.89,0-1.65-.12-2.28-.37s-1.15-.59-1.55-1.03c-.4-.44-.7-.96-.89-1.56-.19-.6-.29-1.26-.29-1.98s.1-1.36.3-1.98c.2-.62.49-1.15.88-1.61.39-.46.87-.82,1.44-1.08.57-.26,1.24-.4,2.01-.4.67,0,1.26.12,1.78.35s.96.55,1.32.96c.36.41.64.89.82,1.45.18.56.28,1.16.28,1.8,0,.23,0,.46-.03.69-.02.23-.04.41-.06.55h-6.14Zm3.75-1.83c-.02-.59-.19-1.07-.49-1.43-.3-.36-.72-.55-1.27-.55-.62,0-1.08.17-1.4.52s-.51.83-.57,1.46h3.74Z"></path><path class="cls-9" d="m257.6,67.62c.44-.07.88-.11,1.31-.11s.85.04,1.29.11v9.71c0,.38.02.69.06.92.04.23.11.42.2.55.09.13.21.22.36.27.15.05.33.07.55.07.1,0,.21,0,.32-.02.12-.01.23-.03.34-.05.13.5.2,1,.2,1.48v.27c0,.08-.01.17-.04.27-.2.06-.43.1-.71.13s-.53.04-.77.04c-.95,0-1.71-.26-2.28-.79-.57-.52-.86-1.38-.86-2.56v-10.28Z"></path><path class="cls-10" d="m263.6,67.62c.44-.07.88-.11,1.31-.11s.85.04,1.29.11v9.71c0,.38.02.69.06.92.04.23.11.42.2.55.09.13.21.22.36.27.15.05.33.07.55.07.1,0,.21,0,.32-.02.12-.01.23-.03.34-.05.13.5.2,1,.2,1.48v.27c0,.08-.01.17-.04.27-.2.06-.43.1-.71.13s-.53.04-.77.04c-.95,0-1.71-.26-2.28-.79-.57-.52-.86-1.38-.86-2.56v-10.28Z"></path><path class="cls-6" d="m271.75,77.16c.05.74.31,1.28.78,1.61.47.33,1.08.5,1.85.5.42,0,.85-.04,1.29-.12.44-.08.85-.19,1.25-.34.14.25.25.54.35.89s.15.71.17,1.11c-.96.37-2.05.55-3.25.55-.89,0-1.65-.12-2.28-.37s-1.15-.59-1.55-1.03c-.4-.44-.7-.96-.89-1.56-.19-.6-.29-1.26-.29-1.98s.1-1.36.3-1.98c.2-.62.49-1.15.88-1.61.39-.46.87-.82,1.44-1.08.57-.26,1.24-.4,2.01-.4.67,0,1.26.12,1.78.35s.96.55,1.32.96c.36.41.64.89.82,1.45.18.56.28,1.16.28,1.8,0,.23,0,.46-.03.69-.02.23-.04.41-.06.55h-6.14Zm3.75-1.83c-.02-.59-.19-1.07-.49-1.43-.3-.36-.72-.55-1.27-.55-.62,0-1.08.17-1.4.52s-.51.83-.57,1.46h3.74Z"></path><path class="cls-7" d="m280.05,71.57c.17-.04.35-.06.52-.08.17-.02.36-.03.57-.03s.4,0,.55.03c.16.02.33.05.5.08.04.06.07.15.1.27s.06.24.08.37c.02.13.05.26.06.38.02.12.03.23.05.31.12-.18.27-.37.44-.55.17-.18.37-.35.6-.5.23-.15.48-.27.77-.36.28-.09.6-.14.94-.14,1.08,0,1.9.3,2.45.89s.82,1.52.82,2.79v6.1c-.44.07-.88.11-1.31.11s-.87-.04-1.31-.11v-5.4c0-.67-.1-1.18-.31-1.53-.2-.36-.56-.54-1.06-.54-.21,0-.43.03-.65.09-.22.06-.42.18-.6.36-.18.18-.32.43-.44.75-.11.32-.17.74-.17,1.26v5.01c-.44.07-.88.11-1.31.11s-.87-.04-1.31-.11v-9.56Z"></path><path class="cls-20" d="m138.48,31.86c.11-.02.23-.03.36-.04.12,0,.25-.01.37-.01s.25,0,.37.01c.12,0,.24.02.36.04v10.27c-.11.02-.23.03-.36.04-.12,0-.25.01-.37.01-.13,0-.26,0-.39-.01-.12,0-.24-.02-.34-.04v-10.27Zm1.89,5.06l3.3-5.06c.13-.02.26-.03.39-.04.13,0,.25-.01.35-.01.12,0,.26,0,.4.01.14,0,.29.02.44.04l-3.26,4.93,3.67,5.34c-.15.02-.3.03-.45.04-.15,0-.29.01-.42.01-.11,0-.24,0-.37-.01-.13,0-.27-.02-.41-.04l-3.64-5.22Z"></path><path class="cls-20" d="m146.92,31.66c.1-.02.22-.03.35-.04.13,0,.25-.01.35-.01s.22,0,.35.01c.13,0,.25.02.35.04v8.26c0,.27.02.48.07.63.05.15.11.27.19.35.08.08.18.13.29.16.11.02.23.04.35.04.09,0,.18,0,.29-.01.11,0,.2-.02.28-.04.09.33.13.7.13,1.09-.13.05-.29.08-.49.09-.19.01-.37.02-.53.02-.28,0-.53-.03-.77-.1s-.45-.18-.63-.33-.32-.36-.43-.61c-.1-.26-.16-.58-.16-.96v-8.57Z"></path><path class="cls-20" d="m151.64,35.92h-.93c-.02-.08-.03-.16-.04-.26,0-.1-.01-.2-.01-.29s0-.19.01-.29c0-.1.02-.19.04-.26h2.32v7.33c-.11.02-.22.03-.35.04-.13,0-.25.01-.35.01-.09,0-.21,0-.34-.01-.13,0-.25-.02-.35-.04v-6.22Zm-.31-2.73c-.02-.11-.03-.24-.04-.37s0-.25,0-.36,0-.22,0-.36c0-.13.02-.25.04-.36.12-.02.26-.03.4-.04.14,0,.27-.01.37-.01s.23,0,.37.01c.14,0,.27.02.39.04.02.1.03.22.04.36,0,.13,0,.25,0,.36s0,.22,0,.36c0,.13-.02.26-.04.37-.11.02-.24.03-.38.04-.14,0-.26.01-.36.01-.11,0-.24,0-.39-.01-.14,0-.28-.02-.4-.04Z"></path><path class="cls-20" d="m155.33,34.81c.1-.02.21-.03.31-.04.1,0,.2-.01.31-.01s.2,0,.29.01c.09,0,.19.02.29.04.03.14.06.33.09.56.03.23.04.43.04.59.09-.17.19-.34.32-.49.13-.16.28-.3.46-.42.18-.12.38-.22.61-.3s.48-.11.76-.11c.57,0,1.01.12,1.32.35.31.23.54.56.71.98.1-.16.21-.32.35-.49.14-.16.29-.3.46-.43.17-.12.37-.22.59-.3.22-.08.47-.11.74-.11.85,0,1.46.24,1.85.71s.58,1.18.58,2.11v4.67c-.11.02-.22.03-.36.04-.13,0-.25.01-.36.01s-.22,0-.35-.01c-.13,0-.25-.02-.35-.04v-4.26c0-.66-.1-1.15-.3-1.48s-.53-.49-.99-.49c-.49,0-.88.18-1.18.53s-.45.87-.45,1.56v4.14c-.1.02-.22.03-.35.04-.13,0-.25.01-.35.01s-.22,0-.35-.01c-.13,0-.25-.02-.35-.04v-4.36c0-.64-.1-1.12-.29-1.44s-.5-.48-.91-.48c-.24,0-.46.05-.67.16-.21.1-.39.26-.55.47s-.28.47-.37.79c-.09.32-.14.69-.14,1.11v3.74c-.1.02-.22.03-.35.04-.13,0-.25.01-.35.01s-.22,0-.36-.01c-.13,0-.25-.02-.36-.04v-7.33Z"></path><path class="cls-20" d="m171.4,37.31c0-.56-.14-.95-.43-1.17-.29-.22-.7-.33-1.24-.33-.33,0-.65.03-.94.08-.29.05-.57.12-.85.21-.18-.31-.27-.69-.27-1.13.32-.1.68-.19,1.07-.24s.77-.09,1.13-.09c.95,0,1.68.22,2.17.65.5.43.74,1.13.74,2.08v4.59c-.33.08-.74.15-1.21.24-.48.08-.96.12-1.46.12-.47,0-.89-.04-1.26-.13-.38-.09-.7-.22-.96-.41-.26-.19-.46-.43-.61-.73s-.21-.65-.21-1.07.08-.77.25-1.08c.17-.31.39-.57.68-.77.29-.21.61-.36.99-.46.37-.1.76-.15,1.17-.15.3,0,.55,0,.75.02.2.01.36.03.49.05v-.27Zm0,1.39c-.14-.02-.32-.04-.54-.06s-.41-.03-.56-.03c-.59,0-1.04.11-1.35.33-.31.22-.46.55-.46,1,0,.29.05.51.16.67s.24.29.39.37c.16.09.33.14.52.16.19.02.37.03.54.03.22,0,.44-.01.68-.04.23-.02.44-.06.62-.11v-2.33Z"></path><path class="cls-20" d="m178.79,37.31c0-.56-.14-.95-.43-1.17-.29-.22-.7-.33-1.24-.33-.33,0-.65.03-.94.08-.29.05-.57.12-.85.21-.18-.31-.27-.69-.27-1.13.32-.1.68-.19,1.07-.24s.77-.09,1.13-.09c.95,0,1.68.22,2.17.65.5.43.74,1.13.74,2.08v4.59c-.33.08-.74.15-1.21.24-.48.08-.96.12-1.46.12-.47,0-.89-.04-1.26-.13-.38-.09-.7-.22-.96-.41-.26-.19-.46-.43-.61-.73s-.21-.65-.21-1.07.08-.77.25-1.08c.17-.31.39-.57.68-.77.29-.21.61-.36.99-.46.37-.1.76-.15,1.17-.15.3,0,.55,0,.75.02.2.01.36.03.49.05v-.27Zm0,1.39c-.14-.02-.32-.04-.54-.06s-.41-.03-.56-.03c-.59,0-1.04.11-1.35.33-.31.22-.46.55-.46,1,0,.29.05.51.16.67s.24.29.39.37c.16.09.33.14.52.16.19.02.37.03.54.03.22,0,.44-.01.68-.04.23-.02.44-.06.62-.11v-2.33Z"></path><path class="cls-20" d="m182.58,35.93h-1.12l-.06-.2,2.46-2.74h.11v1.81h1.86c.04.16.06.34.06.54,0,.1,0,.2-.01.3,0,.1-.02.19-.04.29h-1.86v3.34c0,.4.02.72.05.96s.09.42.17.55c.08.13.19.21.33.26s.31.06.52.06c.16,0,.31-.01.46-.04.14-.02.27-.05.39-.08.07.19.11.39.12.59.01.2.02.38.02.53-.19.05-.39.08-.6.11-.21.02-.43.04-.67.04-.69,0-1.22-.17-1.61-.5s-.58-.89-.58-1.66v-4.16Z"></path><path class="cls-20" d="m190.39,42.31c-.57,0-1.07-.1-1.5-.29-.43-.19-.79-.46-1.07-.81-.29-.34-.5-.75-.64-1.21s-.21-.97-.21-1.51.07-1.05.21-1.51.35-.87.64-1.21c.29-.34.64-.61,1.07-.81s.93-.3,1.5-.3,1.07.1,1.5.3.79.47,1.07.81c.29.34.5.75.64,1.21.14.47.21.97.21,1.51s-.07,1.05-.21,1.51c-.14.47-.35.87-.64,1.21-.29.34-.64.61-1.07.81-.43.2-.93.29-1.5.29Zm0-1.13c.66,0,1.14-.24,1.46-.71.31-.48.47-1.14.47-1.99s-.16-1.51-.47-1.98c-.31-.47-.8-.71-1.46-.71s-1.14.24-1.45.71c-.31.47-.46,1.13-.46,1.98s.16,1.51.46,1.99c.31.48.79.71,1.45.71Z"></path><path class="cls-20" d="m195.67,34.81c.1-.02.21-.03.31-.04.1,0,.2-.01.31-.01s.2,0,.29.01c.09,0,.19.02.29.04.03.14.06.34.09.58.03.24.04.45.04.61.1-.16.22-.32.37-.49.15-.16.32-.31.51-.44s.41-.23.66-.31c.25-.08.52-.12.81-.12.84,0,1.46.24,1.86.72.4.48.6,1.19.6,2.14v4.64c-.1.02-.22.03-.36.04-.13,0-.25.01-.36.01s-.22,0-.35-.01c-.13,0-.25-.02-.35-.04v-4.26c0-.68-.11-1.17-.31-1.49-.21-.32-.54-.48-1-.48-.27,0-.52.05-.76.14-.24.1-.45.24-.63.44-.18.2-.33.46-.44.78-.11.32-.17.7-.17,1.15v3.72c-.1.02-.22.03-.35.04-.13,0-.25.01-.35.01s-.22,0-.36-.01c-.13,0-.25-.02-.36-.04v-7.33Z"></path><path class="cls-20" d="m208.63,31.66c.1-.02.22-.03.36-.04.13,0,.25-.01.34-.01.1,0,.22,0,.35.01.13,0,.25.02.35.04v10.27c-.36.1-.77.19-1.21.26-.45.07-.95.11-1.5.11-.51,0-1-.06-1.46-.19-.46-.13-.87-.34-1.21-.64s-.61-.68-.81-1.14c-.2-.47-.3-1.04-.3-1.73,0-.59.09-1.13.26-1.61.18-.49.43-.9.75-1.25.32-.35.71-.62,1.16-.81.45-.19.96-.29,1.51-.29.25,0,.5.02.75.06.25.04.47.09.67.14v-3.19Zm0,4.39c-.19-.08-.4-.13-.61-.17-.22-.04-.46-.06-.71-.06-.39,0-.73.07-1.01.21-.29.14-.52.34-.71.59-.19.25-.32.54-.42.88-.09.34-.14.71-.14,1.11,0,.91.22,1.55.64,1.94.42.39.99.59,1.71.59.25,0,.48-.01.69-.04.21-.02.4-.06.56-.11v-4.94Z"></path><path class="cls-20" d="m213.36,38.82c.02.8.23,1.39.62,1.76s.98.56,1.75.56c.68,0,1.32-.12,1.93-.36.08.14.14.32.19.52.05.21.08.41.09.61-.31.13-.66.23-1.04.3-.38.07-.79.1-1.25.1-.67,0-1.24-.09-1.71-.28-.48-.19-.87-.45-1.18-.79-.31-.34-.54-.74-.68-1.2-.14-.46-.21-.97-.21-1.52s.07-1.05.21-1.52.35-.88.64-1.23c.29-.35.65-.62,1.08-.83.43-.21.95-.31,1.54-.31.5,0,.95.09,1.33.26s.7.41.96.71c.26.3.45.66.59,1.07.13.41.2.86.2,1.35,0,.13,0,.27-.01.42,0,.15-.02.27-.03.38h-4.99Zm3.63-1.06c0-.27-.04-.52-.11-.76-.07-.24-.18-.46-.31-.64-.14-.18-.31-.33-.53-.44-.21-.11-.47-.16-.76-.16-.58,0-1.03.18-1.34.53-.31.35-.5.84-.56,1.47h3.62Z"></path><path class="cls-20" d="m220.24,34.81c.1-.02.2-.03.3-.04.09,0,.2-.01.3-.01s.21,0,.31.01.2.02.29.04c.03.14.06.33.09.56.03.23.04.43.04.59.2-.32.46-.6.79-.84.33-.24.75-.36,1.26-.36.08,0,.15,0,.24,0,.08,0,.15.01.21.02.02.09.03.18.04.27,0,.1.01.2.01.3,0,.11,0,.23-.02.36-.01.12-.03.24-.05.36-.08-.02-.16-.03-.24-.03h-.19c-.26,0-.5.04-.74.11-.23.07-.44.2-.63.38s-.33.43-.44.74c-.11.31-.17.72-.17,1.21v3.64c-.1.02-.22.03-.35.04-.13,0-.25.01-.35.01s-.22,0-.35-.01c-.13,0-.25-.02-.36-.04v-7.33Z"></path><path class="cls-20" d="m224.83,41.94l3.86-6h-3.4c-.03-.17-.04-.36-.04-.57s.01-.39.04-.56h5.5l.07.19-3.89,6.02h3.64c.03.19.04.39.04.59s-.01.37-.04.54h-5.72l-.07-.2Z"></path><path class="cls-20" d="m235.35,42.31c-.57,0-1.07-.1-1.5-.29-.43-.19-.79-.46-1.07-.81-.29-.34-.5-.75-.64-1.21s-.21-.97-.21-1.51.07-1.05.21-1.51.35-.87.64-1.21c.29-.34.64-.61,1.07-.81s.93-.3,1.5-.3,1.07.1,1.5.3.79.47,1.07.81c.29.34.5.75.64,1.21.14.47.21.97.21,1.51s-.07,1.05-.21,1.51c-.14.47-.35.87-.64,1.21-.29.34-.64.61-1.07.81-.43.2-.93.29-1.5.29Zm0-1.13c.66,0,1.14-.24,1.46-.71.31-.48.47-1.14.47-1.99s-.16-1.51-.47-1.98c-.31-.47-.8-.71-1.46-.71s-1.14.24-1.45.71c-.31.47-.46,1.13-.46,1.98s.16,1.51.46,1.99c.31.48.79.71,1.45.71Z"></path><path class="cls-20" d="m241.68,38.82c.02.8.23,1.39.62,1.76s.98.56,1.75.56c.68,0,1.32-.12,1.93-.36.08.14.14.32.19.52.05.21.08.41.09.61-.31.13-.66.23-1.04.3-.38.07-.79.1-1.25.1-.67,0-1.24-.09-1.71-.28-.48-.19-.87-.45-1.18-.79-.31-.34-.54-.74-.68-1.2-.14-.46-.21-.97-.21-1.52s.07-1.05.21-1.52.35-.88.64-1.23c.29-.35.65-.62,1.08-.83.43-.21.95-.31,1.54-.31.5,0,.95.09,1.33.26s.7.41.96.71c.26.3.45.66.59,1.07.13.41.2.86.2,1.35,0,.13,0,.27-.01.42,0,.15-.02.27-.03.38h-4.99Zm3.63-1.06c0-.27-.04-.52-.11-.76-.07-.24-.18-.46-.31-.64-.14-.18-.31-.33-.53-.44-.21-.11-.47-.16-.76-.16-.58,0-1.03.18-1.34.53-.31.35-.5.84-.56,1.47h3.62Z"></path><path class="cls-20" d="m248.51,31.66c.1-.02.22-.03.35-.04.13,0,.25-.01.35-.01s.22,0,.36.01c.13,0,.25.02.36.04v10.47c-.11.02-.22.03-.36.04-.13,0-.25.01-.36.01s-.22,0-.35-.01c-.13,0-.25-.02-.35-.04v-10.47Zm1.8,6.67l2.33-3.53c.12-.02.25-.03.37-.04.12,0,.25-.01.39-.01.14,0,.28,0,.41.01.13,0,.26.02.39.04l-2.33,3.43,2.73,3.9c-.13.02-.26.03-.39.04-.12,0-.25.01-.39.01s-.27,0-.4-.01c-.13,0-.27-.02-.4-.04l-2.71-3.8Z"></path></svg> 